<?xml version="1.0" standalone="no"?>
<svg xmlns:xlink="http://www.w3.org/1999/xlink" xmlns="http://www.w3.org/2000/svg" class="MuiSvgIcon-root MuiSvgIcon-fontSizeMedium css-vubbuv" focusable="false" aria-hidden="true" viewBox="0 0 100 100" width="100" height="100" fill="none">
	<path fill="#485867" fill-rule="evenodd" d="M50 12c20.987 0 38 17.013 38 38S70.987 88 50 88 12 70.987 12 50s17.013-38 38-38" clip-rule="evenodd"></path>
	<path fill="#fff" fill-rule="evenodd" d="M55.873 65.605c-2.168 4.655-10.726 8.184-13.547 2.069-1.227-2.66-.248-5.655 1.657-7.785 1.09-1.218 2.923-2.279 4.093-3.417 1.492-1.453 1.773-3.276 1.315-5.355 0 .226 4.513 4.954 5.88 6.701 1.806 2.308 1.833 5.144.602 7.787" clip-rule="evenodd"></path>
	<path fill="#fff" fill-rule="evenodd" d="M41.285 57.298c-2.37 2.471-3.393 5.74-3.016 9.028.798 6.96 9.273 9.572 15.2 6.132 5.512-3.2 8.865-10.324 5.473-15.987-1.807-3.017-5.06-5.043-6.938-7.996-2.232-3.512-2.438-7.378-1.41-11.3.908-3.459 2.885-5.703 5.837-8.078 2.889-2.324 10.954-6.067 9.73-5.21a18.57 18.57 0 0 0-6.741 8.744c-1.486 3.988-1.526 8.008.4 11.843 1.458 2.905 3.522 5.533 4.662 8.575 1.588 4.236 1.288 8.806-.825 12.813-3.753 7.117-13.26 12.793-21.796 9.334-8.19-3.319-9.983-12.756-6.373-19.721 1.989-3.838 5.62-6.34 6.602-10.59.706-3.056 1.859-8.598 5.297-10.144-.964 1.238-1.236 1.977-1.474 3.876-.948 7.565 3.983 10.342 2.979 12.28-.866 1.963-6.083 4.811-7.607 6.401" clip-rule="evenodd"></path>
</svg>