<svg width="450" height="235" viewBox="0 0 450 235" fill="none" xmlns="http://www.w3.org/2000/svg">
<g clip-path="url(#clip0_4_157)">
<path d="M13.46 205C14.06 201.64 16.53 199.54 20.25 199.54C20.9302 199.534 21.6032 199.678 22.2205 199.964C22.8378 200.25 23.384 200.669 23.8194 201.191C24.2548 201.714 24.5687 202.327 24.7383 202.985C24.9079 203.644 24.929 204.332 24.8 205H13.46ZM36.16 211.36C38.36 199.96 32.75 191.92 21.16 191.92C11.08 191.92 2.16002 198.52 0.360021 208.84C-1.50998 219.4 5.28002 225.16 15.36 225.16C22.68 225.16 31.06 222.58 34.59 214.78H22.6C22.0386 215.636 21.2709 216.338 20.3675 216.82C19.4641 217.303 18.454 217.55 17.43 217.54C16.6538 217.576 15.8797 217.431 15.1694 217.116C14.4591 216.8 13.832 216.324 13.338 215.724C12.844 215.124 12.4965 214.418 12.3233 213.66C12.1501 212.902 12.1558 212.115 12.34 211.36H36.16Z" fill="#231F20"/>
<path d="M60.07 200.36C63.34 200.18 64.77 203.66 63.95 208.28C62.95 214.22 60.41 216.8 57.05 216.8C53.87 216.8 52.11 214.22 53.15 208.28C53.78 204.74 55.81 200.36 60.07 200.36ZM40.56 208.94C38.66 219.68 45.49 225.2 55.56 225.2C65.63 225.2 74.39 219.8 76.42 208.28C78.15 198.5 72.42 191.96 61.36 191.96C50.75 192 42.48 198 40.56 208.94Z" fill="#231F20"/>
<path d="M99.3301 200.9C103.33 200.9 104.03 204.2 103.42 207.68C102.81 211.16 100.8 214.34 96.9901 214.16C93.6501 214.1 92.6001 211.16 93.1501 208.04C93.8701 204 95.5601 200.84 99.3301 200.9ZM79.1401 225.9C78.9301 230.52 82.8201 234.96 93.9201 234.96C109.4 234.96 111.79 227.58 113.45 218.16L117.91 192.84H106.91L106.2 197C105.346 195.462 104.09 194.184 102.567 193.304C101.043 192.423 99.3095 191.972 97.5501 192C87.2301 192 82.0601 200.22 80.6901 208C79.2801 216 83.0501 222.88 91.7501 222.88C95.264 222.973 98.6864 221.754 101.35 219.46L100.9 222C100.11 226.5 98.3801 228.12 94.7801 228.12C94.323 228.166 93.8612 228.121 93.4216 227.988C92.9821 227.854 92.5736 227.633 92.2201 227.34C92.0323 227.165 91.8863 226.95 91.7928 226.712C91.6994 226.473 91.6608 226.216 91.6801 225.96L79.1401 225.9Z" fill="#231F20"/>
<path d="M133.14 192.54H144.48L143.36 198.9H143.48C146.09 193.98 149.56 191.64 154.42 191.64C154.953 191.67 155.484 191.73 156.01 191.82L153.81 204.3C152.98 204.12 152.138 204 151.29 203.94C146.19 203.94 143.19 206.34 141.99 213.12L140.08 224H127.6L133.14 192.54Z" fill="#231F20"/>
<path d="M167.78 204.72C168.38 201.37 170.85 199.26 174.57 199.26C175.25 199.254 175.923 199.398 176.541 199.684C177.158 199.97 177.704 200.389 178.139 200.911C178.575 201.434 178.889 202.047 179.058 202.705C179.228 203.364 179.249 204.052 179.12 204.72H167.78ZM190.48 211.08C192.67 199.68 187.07 191.64 175.48 191.64C165.4 191.64 156.48 198.24 154.68 208.56C152.81 219.12 159.6 224.88 169.68 224.88C177 224.88 185.37 222.3 188.91 214.5H176.92C176.36 215.358 175.593 216.06 174.689 216.543C173.785 217.025 172.774 217.272 171.75 217.26C170.974 217.296 170.2 217.151 169.49 216.836C168.779 216.52 168.152 216.044 167.658 215.444C167.164 214.844 166.817 214.138 166.643 213.38C166.47 212.622 166.476 211.835 166.66 211.08H190.48Z" fill="#231F20"/>
<path d="M205.65 214.2C205.521 214.709 205.528 215.243 205.67 215.748C205.812 216.254 206.085 216.713 206.46 217.08C207.273 217.755 208.304 218.111 209.36 218.08C211.28 218.08 213.42 217.48 213.81 215.26C214.7 210.26 194.73 214.26 196.88 202.06C198.3 194.06 207.05 191.68 213.59 191.68C220.43 191.68 228.19 193.24 227.44 201.58H216.1C216.151 201.165 216.106 200.744 215.969 200.348C215.832 199.953 215.607 199.595 215.31 199.3C214.644 198.748 213.793 198.47 212.93 198.52C210.76 198.52 209.27 199.18 208.99 200.74C208.22 205.12 228.6 202.18 226.52 213.94C225.37 220.48 219.19 224.94 207.67 224.94C200.47 224.94 192.94 222.72 193.77 214.26L205.65 214.2Z" fill="#231F20"/>
<path d="M251 200C254.28 199.82 255.71 203.3 254.89 207.92C253.84 213.86 251.35 216.44 247.99 216.44C244.81 216.44 243.04 213.86 244.09 207.92C244.76 204.42 246.79 200 251 200ZM231.49 208.58C229.6 219.32 236.42 224.84 246.49 224.84C256.56 224.84 265.32 219.44 267.35 207.92C269.08 198.14 263.35 191.6 252.29 191.6C241.73 191.64 233.46 197.7 231.53 208.62L231.49 208.58Z" fill="#231F20"/>
<path d="M303.82 224H292.25L293.06 219.38C289.18 223.7 285.91 224.9 280.75 224.9C273.91 224.9 270.21 220.7 271.75 211.7L275.13 192.56H287.61L284.61 209.56C283.85 213.88 285.11 215.26 288.11 215.26C291.71 215.26 293.33 212.56 294.18 207.7L296.85 192.58H309.33L303.82 224Z" fill="#231F20"/>
<path d="M315.43 192.54H326.77L325.65 198.9H325.77C328.38 193.98 331.85 191.64 336.71 191.64C337.243 191.67 337.774 191.73 338.3 191.82L336.09 204.3C335.263 204.119 334.424 203.999 333.58 203.94C328.48 203.94 325.47 206.34 324.28 213.12L322.36 224H309.88L315.43 192.54Z" fill="#231F20"/>
<path d="M360.18 204.54C360.295 203.978 360.287 203.397 360.158 202.838C360.028 202.279 359.78 201.755 359.43 201.3C359.069 200.863 358.607 200.521 358.085 200.301C357.562 200.082 356.995 199.992 356.43 200.04C351.75 200.04 350.11 204.9 349.43 208.62C348.6 213.36 349.85 216.48 353.51 216.48C356.75 216.48 358.4 214.26 359.2 211.8H371.8C369.04 221.34 360.74 224.88 352.04 224.88C341.89 224.88 335.1 219.18 336.97 208.56C338.84 197.94 347.52 191.64 357.9 191.64C366.3 191.64 373.58 195.24 372.84 204.54H360.18Z" fill="#231F20"/>
<path d="M390.09 204.72C390.68 201.37 393.15 199.26 396.88 199.26C397.56 199.254 398.233 199.398 398.851 199.684C399.468 199.97 400.014 200.389 400.449 200.911C400.885 201.434 401.199 202.047 401.368 202.705C401.538 203.364 401.559 204.052 401.43 204.72H390.09ZM412.79 211.08C414.98 199.68 409.38 191.64 397.73 191.64C387.66 191.64 378.73 198.24 376.93 208.56C375.07 219.12 381.86 224.88 391.93 224.88C399.26 224.88 407.63 222.3 411.17 214.5H399.22C398.663 215.358 397.898 216.062 396.995 216.544C396.093 217.027 395.083 217.273 394.06 217.26C393.284 217.296 392.51 217.151 391.799 216.836C391.089 216.52 390.462 216.044 389.968 215.444C389.474 214.844 389.127 214.138 388.953 213.38C388.78 212.622 388.786 211.835 388.97 211.08H412.79Z" fill="#231F20"/>
<path d="M428 214.2C427.871 214.709 427.878 215.243 428.02 215.748C428.163 216.254 428.435 216.713 428.81 217.08C429.619 217.755 430.647 218.111 431.7 218.08C433.62 218.08 435.77 217.48 436.16 215.26C437.05 210.26 417.08 214.26 419.23 202.06C420.65 194.06 429.4 191.68 435.94 191.68C442.77 191.68 450.54 193.24 449.79 201.58H438.41C438.462 201.164 438.417 200.742 438.278 200.346C438.139 199.95 437.911 199.592 437.61 199.3C436.945 198.746 436.094 198.467 435.23 198.52C433.07 198.52 431.57 199.18 431.3 200.74C430.53 205.12 450.9 202.18 448.83 213.94C447.68 220.48 441.49 224.94 429.98 224.94C422.77 224.94 415.24 222.72 416.08 214.26L428 214.2Z" fill="#231F20"/>
<path d="M252.63 68.73C248.743 59.9412 247.552 50.1961 249.21 40.73C251.946 24.4573 260.854 9.8675 274.08 0C249.13 3 227.16 24.88 223 51.44C221.42 61.44 220.63 77.05 236.79 93.28C246.55 103.08 256.43 113.79 253.58 132.84C250.67 152.34 233.33 168.1 214.78 168.02C196.23 167.94 183.91 152.11 186.42 132.54C189.63 107.47 216.54 99.75 219.07 84.25C220.07 78.32 218.6 72.25 217.19 67.08C215.06 60.15 211.13 48.76 215.98 34.88C215.98 34.88 201.59 46.02 198.08 69.46C197.33 74.54 195.93 81.82 188.92 89.08C179.936 98.6581 174.119 110.77 172.26 123.77C168.38 152.3 186.58 175.44 213.66 175.55C240.74 175.66 265.96 152.65 270.32 124.19C274.08 99.51 258.4 81.5 252.63 68.73Z" fill="#EE3124"/>
<path d="M214.8 158.28H214.9C228.47 158.28 241.75 146 243.9 131.4C245.97 117.55 239.82 109.89 229.83 100.15C219.84 90.41 220.07 85.68 219.29 79.15C219.51 93.15 220.16 101.91 212.39 109.26C204.62 116.61 197.39 123.1 196.01 133.73C195.08 141.01 196.8 147.56 200.84 152.18C202.58 154.141 204.727 155.699 207.131 156.744C209.536 157.789 212.139 158.296 214.76 158.23L214.8 158.28Z" fill="#231F20"/>
</g>
<defs>
<clipPath id="clip0_4_157">
<rect width="449.8" height="234.98" fill="white"/>
</clipPath>
</defs>
</svg>
